<?xml version="1.0" standalone="no"?>
<!DOCTYPE svg PUBLIC "-//W3C//DTD SVG 20010904//EN"
 "http://www.w3.org/TR/2001/REC-SVG-20010904/DTD/svg10.dtd">
<svg version="1.0" xmlns="http://www.w3.org/2000/svg"
 width="234.000000pt" height="234.000000pt" viewBox="0 0 234.000000 234.000000"
 preserveAspectRatio="xMidYMid meet">

<g transform="translate(0.000000,234.000000) scale(0.100000,-0.100000)"
fill="#000000" stroke="none">
<path d="M1099 1941 c-38 -38 -38 -74 1 -113 l30 -30 0 -151 0 -152 -118 118
c-106 105 -118 121 -114 147 5 37 -43 90 -83 90 -39 0 -75 -41 -75 -87 0 -34
-8 -46 -74 -112 -67 -67 -75 -72 -96 -61 -26 14 -75 -2 -90 -31 -11 -20 -13
-60 -4 -84 9 -22 61 -47 84 -40 14 5 23 -3 37 -32 24 -51 88 -114 141 -137 36
-17 43 -23 40 -45 l-3 -26 -123 -3 -124 -3 -34 31 c-39 34 -53 36 -93 15 -74
-38 -43 -145 41 -145 17 0 39 10 53 24 24 24 32 25 152 27 l128 1 3 -29 c3
-25 -2 -31 -40 -50 -61 -29 -104 -68 -134 -119 -22 -38 -31 -44 -58 -44 -72 0
-103 -84 -50 -137 22 -22 31 -24 65 -19 39 6 42 4 110 -60 62 -61 69 -71 69
-106 0 -79 83 -116 137 -62 20 20 24 32 20 58 -5 31 1 39 87 125 82 82 96 91
119 86 l27 -7 0 -118 c0 -118 0 -119 -30 -148 -37 -37 -39 -74 -5 -107 51 -52
135 -18 135 54 0 24 -8 40 -30 59 l-30 26 0 113 c0 112 0 114 25 125 25 11 31
7 120 -82 86 -85 95 -98 95 -132 0 -41 35 -78 76 -78 38 0 77 41 77 81 -1 29
10 45 70 106 68 70 73 72 109 67 32 -6 41 -2 68 24 18 18 30 41 30 57 0 38
-41 75 -83 75 -29 0 -37 5 -47 30 -18 44 -85 109 -136 131 -40 18 -44 23 -44
55 l0 35 125 -4 c120 -3 126 -5 153 -30 44 -43 102 -34 130 20 18 34 14 52
-17 84 -38 38 -74 38 -113 -1 l-30 -30 -124 0 -124 0 0 30 c0 25 7 33 40 50
58 29 114 83 134 128 15 34 21 38 53 38 41 0 83 39 83 77 0 51 -58 95 -104 78
-20 -8 -32 -1 -98 67 -65 66 -76 82 -75 111 0 25 -7 40 -27 58 -34 28 -65 29
-100 2 -20 -16 -26 -29 -26 -61 0 -39 -6 -47 -117 -157 l-118 -116 -3 155 c-2
110 1 156 9 159 39 13 60 70 43 116 -7 18 -55 45 -79 45 -9 0 -30 -13 -46 -29z
m82 -37 c17 -21 0 -49 -32 -49 -24 0 -36 23 -25 51 7 19 40 18 57 -2z m-333
-133 c6 -39 -39 -56 -58 -22 -15 30 -2 53 29 49 19 -2 27 -10 29 -27z m667 8
c14 -42 -45 -66 -61 -24 -10 25 4 45 30 45 16 0 27 -7 31 -21z m-545 -184 c55
-55 98 -101 96 -102 -4 -4 -139 31 -180 47 -53 20 -66 14 -66 -29 0 -31 -4
-38 -17 -37 -16 1 -18 -10 -21 -86 -1 -49 -6 -88 -10 -88 -5 0 -29 13 -53 29
-65 41 -93 91 -94 164 l0 59 71 72 c71 70 73 71 124 70 l51 0 99 -99z m641 29
c67 -68 69 -70 71 -125 2 -47 -2 -64 -25 -98 -25 -38 -99 -101 -119 -101 -4 0
-8 24 -8 53 0 87 -10 127 -31 127 -15 0 -19 8 -19 39 l0 38 -112 -33 c-62 -19
-118 -34 -124 -34 -6 0 33 46 87 103 l99 102 56 -1 c55 -1 56 -1 125 -70z
m-1041 -89 c18 -22 8 -50 -19 -50 -32 0 -49 28 -32 49 17 20 35 20 51 1z
m1214 -1 c21 -21 3 -57 -26 -52 -30 4 -45 32 -29 52 17 20 35 20 55 0z m-808
-66 c85 -25 104 -35 104 -50 0 -22 -13 -21 -140 17 -60 18 -76 26 -78 44 -2
11 0 21 3 21 4 0 54 -14 111 -32z m462 10 c-2 -18 -16 -26 -79 -44 -130 -37
-139 -38 -139 -17 0 15 20 25 103 50 124 38 119 38 115 11z m-254 -70 c8 -14
7 -21 -6 -34 -22 -22 -58 -10 -58 21 0 37 43 46 64 13z m-216 -23 c64 -20 126
-45 137 -56 18 -18 20 -35 23 -187 2 -95 -1 -179 -7 -194 -5 -14 -22 -35 -38
-45 l-28 -20 -95 28 c-52 15 -105 25 -117 22 l-23 -5 0 246 c0 213 2 246 15
246 8 0 68 -16 133 -35z m512 -211 c0 -241 0 -246 -20 -241 -11 3 -64 -8 -117
-23 l-98 -29 -35 35 -35 34 -3 152 c-4 166 5 220 41 240 27 14 225 76 250 77
16 1 17 -17 17 -245z m-1012 -5 c3 -28 -16 -43 -42 -33 -38 14 -22 68 18 62
14 -2 22 -12 24 -29z m1429 15 c8 -22 -10 -49 -32 -49 -22 0 -40 27 -32 49 8
21 56 21 64 0z m-1117 -229 c0 -68 2 -75 19 -75 16 0 20 -8 23 -42 l3 -43 96
-3 96 -3 -74 -71 c-70 -69 -75 -72 -123 -72 -49 -1 -52 1 -123 69 l-73 70 1
60 c0 70 22 108 88 156 61 44 67 41 67 -46z m788 61 c35 -18 86 -73 104 -111
9 -18 13 -48 10 -76 -3 -42 -11 -53 -73 -115 -68 -67 -70 -69 -124 -69 l-54
-1 -73 73 -72 73 97 0 97 0 0 45 c0 37 3 45 19 45 22 0 31 26 31 98 0 28 2 52
5 52 4 0 18 -6 33 -14z m-608 -151 l75 -24 -87 -1 c-87 0 -88 0 -88 25 0 31 6
31 100 0z m480 0 c0 -25 -1 -25 -82 -24 l-83 1 70 23 c90 30 95 30 95 0z
m-256 -7 c15 -24 -13 -53 -43 -43 -21 6 -29 43 -14 59 12 12 45 2 57 -16z
m-606 -41 c-5 -37 -67 -33 -68 5 0 4 7 14 16 22 21 22 56 3 52 -27z m1203 27
c24 -22 8 -54 -26 -54 -14 0 -25 2 -25 4 0 2 -3 11 -6 19 -5 13 19 47 33 47 4
0 15 -7 24 -16z m-933 -270 c2 -11 -3 -26 -11 -33 -29 -24 -70 17 -46 46 17
20 53 12 57 -13z m669 10 c8 -22 -10 -49 -32 -49 -10 0 -22 7 -28 16 -15 24
-1 49 28 49 15 0 28 -7 32 -16z m-336 -110 c17 -21 0 -49 -32 -49 -24 0 -36
23 -25 51 7 19 40 18 57 -2z"/>
<path d="M952 1858 c-23 -23 -7 -68 24 -68 14 0 44 27 44 40 0 13 -30 40 -44
40 -6 0 -17 -5 -24 -12z"/>
<path d="M1302 1858 c-29 -29 4 -76 42 -62 30 11 13 74 -19 74 -6 0 -16 -5
-23 -12z"/>
<path d="M453 1373 c-19 -7 -16 -51 4 -62 37 -20 71 27 41 57 -13 13 -24 14
-45 5z"/>
<path d="M1800 1361 c-20 -38 13 -71 51 -51 21 12 25 40 7 58 -18 18 -46 14
-58 -7z"/>
<path d="M444 1016 c-12 -31 0 -51 31 -51 27 0 30 3 30 30 0 25 -4 30 -28 33
-17 2 -29 -2 -33 -12z"/>
<path d="M1799 1014 c-17 -21 0 -49 31 -49 31 0 48 28 31 49 -8 9 -21 16 -31
16 -10 0 -23 -7 -31 -16z"/>
<path d="M952 528 c-28 -28 4 -77 42 -62 21 8 28 32 16 55 -12 21 -40 25 -58
7z"/>
<path d="M1302 528 c-18 -18 -14 -46 9 -58 26 -14 49 3 49 35 0 32 -35 46 -58
23z"/>
</g>
</svg>
